<mxfile host="app.diagrams.net" modified="2024-05-23T10:31:52.601Z" agent="Mozilla/5.0 (Macintosh; Intel Mac OS X 10_15_7) AppleWebKit/537.36 (KHTML, like Gecko) Chrome/124.0.0.0 Safari/537.36" version="24.4.6" etag="scnju8Mf7JmhrUHmR0vm" type="github">
  <diagram name="PÃ¡gina-1" id="6R9JJOtjKGj8fc6TWFMS">
    <mxGraphModel>
      <root>
        <mxCell id="0" />
        <mxCell id="1" parent="0" />
      </root>
    </mxGraphModel>
  </diagram>
</mxfile>
